<?xml version="1.0" encoding="UTF-8"?>
<svg version="1.1" viewBox="0 0 2048 2048" width="512" height="512" xmlns="http://www.w3.org/2000/svg">
<path transform="translate(289,426)" d="m0 0h1126l18 2 15 4 15 6 13 7 11 8 10 9 5 5 9 10 9 14 8 16 6 20 2 12v31l-4 20-6 16-7 14-8 12-13 15-12 10-14 9-16 8-20 6-22 3h-1124l-16-2-18-5-12-5-15-8-12-9-13-12-11-14-8-13-7-15-5-16-3-17v-24l3-18 5-16 7-15 7-12 8-11h2l2-4 10-10 16-12 17-9 21-7z"/>
<path transform="translate(290,938)" d="m0 0h1125l18 2 15 4 15 6 13 7 11 8 10 9 5 5 9 10 9 14 8 16 6 20 2 12v31l-4 20-6 16-7 14-8 12-9 10-5 6-14 11-11 7-16 8-20 6-12 2-11 1h-1123l-16-2-18-5-12-5-15-8-12-9-13-12-11-14-8-13-7-15-5-16-3-17v-24l3-18 5-16 7-15 7-12 8-11h2l2-4 10-10 16-12 17-9 21-7 11-2z"/>
<path transform="translate(290,1450)" d="m0 0h613l18 2 15 4 15 6 13 7 11 8 10 9 5 5 9 10 9 14 8 16 6 20 2 12v31l-4 20-6 16-7 14-8 12-9 10-5 6-14 11-11 7-16 8-20 6-12 2-11 1h-610l-17-2-18-5-12-5-15-8-12-9-13-12-11-14-8-13-7-15-5-16-3-17v-24l3-18 5-16 7-15 7-12 8-11h2l2-4 10-10 16-12 17-9 21-7 11-2z"/>
<path transform="translate(1738,426)" d="m0 0h23l19 3 18 6 16 8 13 9 11 9 7 7 13 17 10 19 6 18 3 15 1 9v18l-3 19-5 17-7 15-8 13-9 12-12 12-17 12-15 8-17 6-25 5h-23l-17-3-16-5-16-7-14-9-11-9-12-12-11-15-10-19-5-15-4-19-1-19 2-18 4-17 6-15 8-15 11-15 7-8 8-7 13-10 21-11 18-6z"/>
</svg>
